# This file uses centimeters as units for non-parametric coordinates.

mtllib shopBldg.mtl
g default
v -25.000000 0.000000 20.000000
v 24.999998 0.000000 20.000000
v -25.000000 5.473950 20.000000
v -2.573770 5.473950 20.000000
v 21.766336 5.473950 20.000000
v 24.999998 5.473950 20.000000
v -25.000000 16.666666 20.000000
v -2.573770 16.666666 20.000000
v 21.766336 16.666666 20.000000
v 24.999998 16.666666 20.000000
v -25.000000 25.000000 20.000000
v 24.999998 25.000000 20.000000
v -25.000000 22.373850 -20.000000
v 24.999998 22.373850 -20.000000
v -25.000000 0.000000 -20.000000
v 24.999998 0.000000 -20.000000
v -2.573770 5.473950 19.121441
v 21.766336 5.473950 19.121441
v 21.766336 16.666666 19.121441
v -2.573770 16.666666 19.121441
v -18.959890 5.473950 20.000000
v -18.953648 0.000000 20.000000
v -18.972542 14.040516 20.000000
v -10.962160 0.000000 20.000000
v -10.976783 5.473950 20.000000
v -11.006692 14.040516 20.000000
v -11.006692 14.040516 19.206245
v -18.972542 14.040516 19.206245
v -18.953648 0.000000 19.206245
v -10.962160 0.000000 19.206245
v -3.050245 12.646076 29.193939
v 21.949753 12.646076 29.193939
v -3.050245 16.471634 19.954617
v 21.949753 16.471634 19.954617
v -3.050245 14.044517 29.193941
v -2.976624 14.352459 29.125919
v -2.800616 14.568597 28.963299
v -2.584161 14.688903 28.763313
v 21.949753 14.044517 29.193941
v 21.876131 14.352459 29.125919
v 21.700123 14.568597 28.963299
v 21.483667 14.688903 28.763313
v -3.050245 17.870077 19.954617
v -2.987803 18.103119 19.954617
v -2.817204 18.273718 19.954617
v -2.584161 18.336161 19.954617
v 21.483667 18.336161 19.954617
v 21.716711 18.273720 19.954617
v 21.887310 18.103121 19.954617
v 21.949753 17.870077 19.954617
vt 0.375000 0.000000
vt 0.625000 0.000000
vt 0.375000 0.083333
vt 0.458333 0.083333
vt 0.541667 0.083333
vt 0.625000 0.083333
vt 0.375000 0.166667
vt 0.458333 0.166667
vt 0.541667 0.166667
vt 0.625000 0.166667
vt 0.375000 0.250000
vt 0.625000 0.250000
vt 0.375000 0.500000
vt 0.625000 0.500000
vt 0.375000 0.750000
vt 0.625000 0.750000
vt 0.875000 0.000000
vt 0.875000 0.250000
vt 0.125000 0.000000
vt 0.125000 0.250000
vt 0.458333 0.083333
vt 0.541667 0.083333
vt 0.541667 0.166667
vt 0.458333 0.166667
vt 0.397444 0.083333
vt 0.405232 -0.000000
vt 0.397397 0.166667
vt 0.427109 0.083333
vt 0.445189 0.000000
vt 0.426998 0.166667
vt 0.426998 0.166667
vt 0.397397 0.166667
vt 0.405232 -0.000000
vt 0.445189 0.000000
vt 0.000000 0.249975
vt 1.000000 0.249975
vt 1.000000 1.000000
vt 0.000000 1.000000
vt 0.000000 0.249975
vt 1.000000 0.249977
vt 1.000000 1.000000
vt 0.000000 1.000000
vt 0.000000 0.249975
vt 1.000000 0.249975
vt 1.000000 1.000000
vt 0.000000 1.000000
vt 0.018643 0.400000
vt 0.010794 0.009369
vt 0.989206 0.009369
vt 0.981357 0.400000
vt 0.009985 0.009411
vt 0.990015 0.009411
vt 0.002945 0.000094
vt 0.997055 0.084817
vt 0.002945 0.084817
vt 0.007362 0.099922
vt 1.000000 0.124988
vt 0.009322 0.399044
vt 0.002498 0.396434
vt 0.990678 0.399044
vt 0.997055 0.000094
vt 0.997502 0.396434
vt 0.992638 0.099922
vt 0.000000 0.124987
vt 0.000000 0.392868
vt 1.000000 0.392868
vn 0.000000 0.000000 1.000000
vn 0.000000 0.000000 1.000000
vn 0.000000 0.000000 1.000000
vn 0.000000 0.000000 1.000000
vn 0.000000 0.997852 -0.065513
vn 0.000000 0.997852 -0.065513
vn 0.000000 0.997852 -0.065513
vn 0.000000 0.997852 -0.065513
vn 0.000000 0.000000 -1.000000
vn 0.000000 0.000000 -1.000000
vn 0.000000 0.000000 -1.000000
vn 0.000000 0.000000 -1.000000
vn 0.000000 0.000000 1.000000
vn 0.000000 0.000000 1.000000
vn 0.000000 0.000000 1.000000
vn 0.000000 0.000000 1.000000
vn 0.000000 0.000000 1.000000
vn 0.000000 0.000000 1.000000
vn 0.000000 0.000000 1.000000
vn 0.000000 0.000000 1.000000
vn 0.000000 0.000000 1.000000
vn 0.000000 0.000000 1.000000
vn 0.000000 0.000000 1.000000
vn 0.000000 0.000000 1.000000
vn 0.000000 0.000000 1.000000
vn 0.000000 0.000000 1.000000
vn 0.000000 0.000000 1.000000
vn 0.000000 0.000000 1.000000
vn 0.000000 0.000000 1.000000
vn 0.000000 0.000000 1.000000
vn 1.000000 0.000000 0.000000
vn 1.000000 0.000000 0.000000
vn 1.000000 0.000000 0.000000
vn 1.000000 0.000000 0.000000
vn 1.000000 0.000000 0.000000
vn 1.000000 0.000000 0.000000
vn -1.000000 0.000000 0.000000
vn -1.000000 0.000000 0.000000
vn -1.000000 0.000000 0.000000
vn -1.000000 0.000000 0.000000
vn -1.000000 0.000000 0.000000
vn -1.000000 0.000000 0.000000
vn 0.000000 1.000000 0.000000
vn 0.000000 1.000000 0.000000
vn 0.000000 1.000000 0.000000
vn 0.000000 1.000000 0.000000
vn -1.000000 0.000000 0.000000
vn -1.000000 0.000000 0.000000
vn -1.000000 0.000000 0.000000
vn -1.000000 0.000000 0.000000
vn 0.000000 -1.000000 0.000000
vn 0.000000 -1.000000 0.000000
vn 0.000000 -1.000000 0.000000
vn 0.000000 -1.000000 0.000000
vn 1.000000 0.000000 0.000000
vn 1.000000 0.000000 0.000000
vn 1.000000 0.000000 0.000000
vn 1.000000 0.000000 0.000000
vn 0.000000 0.000000 1.000000
vn 0.000000 0.000000 1.000000
vn 0.000000 0.000000 1.000000
vn 0.000000 0.000000 1.000000
vn 0.000000 -1.000000 0.000000
vn 0.000000 -1.000000 0.000000
vn 0.000000 -1.000000 0.000000
vn 0.000000 -1.000000 0.000000
vn 0.999999 0.001346 0.000000
vn 0.999999 0.001349 -0.000052
vn 0.999999 0.001185 -0.000186
vn 0.999996 0.001467 -0.002251
vn 0.999999 0.001140 0.000000
vn -0.999995 -0.003172 0.000000
vn -0.999996 -0.002779 0.000453
vn -0.999995 -0.003179 0.000126
vn -0.999979 -0.003467 0.005487
vn -0.999996 -0.002671 0.000000
vn 0.000000 -1.000000 0.000000
vn 0.000000 -1.000000 0.000000
vn 0.000000 -1.000000 0.000000
vn 0.000000 -1.000000 0.000000
vn 0.000000 -1.000000 0.000000
vn 0.000000 -1.000000 0.000000
vn 0.000000 -1.000000 0.000000
vn 0.000000 -1.000000 0.000000
vn 0.000000 0.034855 0.999392
vn 0.000000 0.034855 0.999392
vn 0.000000 -0.000001 1.000000
vn 0.000000 -0.000001 1.000000
vn -0.999713 0.022151 0.009166
vn -0.997786 0.061456 0.025431
vn -1.000000 -0.000000 0.000000
vn -1.000000 -0.000000 0.000000
vn 0.997786 0.061454 0.025430
vn 0.999713 0.022151 0.009166
vn 1.000000 0.000000 0.000000
vn 1.000000 0.000000 0.000000
vn -0.001807 0.923934 0.382547
vn -0.002809 0.921951 0.387298
vn 0.002809 0.921951 0.387298
vn 0.001807 0.923934 0.382547
vn 0.000000 0.673144 0.739512
vn 0.000000 0.673144 0.739512
vn 0.000000 0.345574 0.938392
vn 0.000000 0.345574 0.938392
vn -0.961162 0.255015 0.105525
vn -0.961162 0.255015 0.105525
vn -0.649097 0.703469 0.289491
vn -0.554191 0.769654 0.317026
vn -0.411888 0.842425 0.347374
vn -0.649097 0.703469 0.289491
vn 0.554187 0.769657 0.317025
vn 0.411886 0.842426 0.347374
vn 0.649091 0.703475 0.289489
vn 0.649091 0.703475 0.289489
vn 0.961163 0.255008 0.105525
vn 0.961163 0.255008 0.105525
vn 0.000000 0.000000 -1.000000
vn 0.000000 0.000000 -1.000000
vn 0.000000 0.000000 -1.000000
vn 0.000000 0.000000 -1.000000
vn 0.000000 0.000000 -1.000000
vn 0.000000 0.000000 -1.000000
vn 0.000000 0.000000 -1.000000
vn 0.000000 0.000000 -1.000000
s off
g polySurface1
usemtl initialShadingGroup
f 17/21/1 18/22/2 19/23/3 20/24/4
f 14/14/5 13/13/6 11/11/7 12/12/8
f 13/13/9 14/14/10 16/16/11 15/15/12
s 1
f 2/2/13 6/6/14 24/29/15
f 24/29/15 6/6/14 25/28/16
f 5/5/17 6/6/14 9/9/18
f 6/6/14 10/10/19 9/9/18
f 10/10/19 12/12/20 9/9/18
f 12/12/20 11/11/21 9/9/18
f 9/9/18 11/11/21 8/8/22
f 11/11/21 7/7/23 8/8/22
f 1/1/24 22/26/25 3/3/26
f 22/26/25 21/25/27 3/3/26
f 21/25/27 23/27/28 3/3/26
f 3/3/26 23/27/28 7/7/23
f 7/7/23 23/27/28 8/8/22
f 23/27/28 26/30/29 8/8/22
f 8/8/22 26/30/29 4/4/30
f 26/30/29 25/28/16 4/4/30
f 25/28/16 6/6/14 4/4/30
f 6/6/14 5/5/17 4/4/30
s 4
f 12/12/31 10/10/32 14/18/33
f 14/18/33 10/10/32 16/17/34
f 10/10/32 6/6/35 16/17/34
f 6/6/35 2/2/36 16/17/34
s 5
f 11/11/37 13/20/38 7/7/39
f 13/20/38 15/19/40 7/7/39
f 7/7/39 15/19/40 3/3/41
f 15/19/40 1/1/42 3/3/41
s off
f 18/22/43 17/21/44 4/4/45 5/5/46
f 19/23/47 18/22/48 5/5/49 9/9/50
f 20/24/51 19/23/52 9/9/53 8/8/54
f 17/21/55 20/24/56 8/8/57 4/4/58
f 27/31/59 28/32/60 29/33/61 30/34/62
f 26/30/63 23/27/64 28/32/65 27/31/66
s 6
f 28/32/67 23/27/68 29/33/69
f 23/27/68 21/25/70 29/33/69
f 21/25/70 22/26/71 29/33/69
s 7
f 27/31/72 30/34/73 26/30/74
f 26/30/74 30/34/73 25/28/75
f 30/34/73 24/29/76 25/28/75
s 8
f 24/29/77 30/34/78 2/2/79
f 22/26/80 1/1/81 29/33/82
f 1/1/81 15/15/83 29/33/82
f 15/15/83 16/17/84 29/33/82
f 29/33/82 16/17/84 30/34/78
f 30/34/78 16/17/84 2/2/79
s 10
f 39/35/85 35/36/86 31/37/87 32/38/88
s 11
f 35/39/89 43/40/90 33/41/91 31/42/92
s 12
f 50/43/93 39/44/94 32/45/95 34/46/96
s 10
f 46/47/97 38/48/98 42/49/99 47/50/100
f 38/48/98 37/51/101 41/52/102 42/49/99
f 37/51/101 36/53/103 40/49/104 41/52/102
f 36/54/103 35/36/86 39/35/85 40/55/104
s 11
f 35/39/89 36/56/105 44/57/106 43/40/90
s 10
f 36/48/107 37/51/108 45/58/109 44/59/110
f 37/51/108 38/48/98 46/47/97 45/58/109
f 42/49/99 41/52/111 48/60/112 47/50/100
f 41/52/111 40/61/113 49/62/114 48/60/112
s 12
f 40/63/115 39/44/94 50/43/93 49/64/116
s off
f 43/65/117 44/59/118 45/58/119 46/47/120
f 47/50/121 48/60/122 49/62/123 50/66/124
