# This file uses centimeters as units for non-parametric coordinates.

mtllib sidewalk.mtl
g default
v -2.500000 0.000000 2.500000
v 2.500000 0.000000 2.500000
v -2.500000 0.000000 -2.500000
v 2.500000 0.000000 -2.500000
v -2.375013 0.966510 2.500000
v -2.466510 0.875012 2.500000
v -2.500000 0.750025 2.500000
v -2.500000 0.750025 -2.500000
v -2.466510 0.875012 -2.500000
v -2.375013 0.966510 -2.500000
v 2.500000 0.991333 2.467654
v 2.500000 0.967654 2.491333
v 2.500000 0.935308 2.500000
v 2.500000 1.000000 2.435308
v -2.312513 0.983257 2.500000
v -2.295769 0.954256 2.500000
v -2.272897 0.977128 2.491333
v -2.256154 0.993871 2.467654
v -2.250025 1.000000 2.435308
v 2.500000 0.967654 -2.491333
v 2.500000 0.991333 -2.467654
v 2.500000 1.000000 -2.435308
v 2.500000 0.935308 -2.500000
v -2.312513 0.983257 -2.500000
v -2.250025 1.000000 -2.435308
v -2.256154 0.993871 -2.467654
v -2.272897 0.977128 -2.491333
v -2.295769 0.954256 -2.500000
vt 0.625000 0.750000
vt 0.375000 1.000000
vt 0.625000 1.000000
vt 0.125000 0.000000
vt 0.125000 0.187506
vt 0.375000 0.218753
vt 0.125000 0.218753
vt 0.376675 0.250000
vt 0.381249 0.500000
vt 0.376675 0.500000
vt 0.381249 0.241627
vt 0.376675 0.218753
vt 0.375000 0.187506
vt 0.625000 0.000000
vt 0.875000 0.000000
vt 0.871765 0.250000
vt 0.381249 0.250000
vt 0.384375 0.250000
vt 0.387499 0.496765
vt 0.384374 0.500000
vt 0.376675 0.531247
vt 0.381249 0.508373
vt 0.385212 0.511436
vt 0.375000 0.000000
vt 0.625000 0.253235
vt 0.375000 0.562494
vt 0.625000 0.516173
vt 0.375000 0.750000
vt 0.625000 0.233827
vt 0.625000 0.241913
vt 0.625000 0.247833
vt 0.625000 0.251617
vt 0.387499 0.253235
vt 0.387499 0.251937
vt 0.625000 0.496765
vt 0.387499 0.498385
vt 0.625000 0.498383
vt 0.625000 0.499567
vt 0.387499 0.499569
vt 0.625000 0.508087
vt 0.385218 0.511444
vt 0.626617 0.247833
vt 0.625433 0.241914
vt 0.628235 0.250000
vt 0.385212 0.238564
vt 0.386355 0.244282
vt 0.387192 0.248468
vt 0.384374 0.245814
vt 0.387499 0.250000
vt 0.874567 0.241914
vt 0.873383 0.247833
vt 0.875000 0.233827
vt 0.387499 0.500000
vt 0.387192 0.501532
vt 0.386355 0.505718
vt 0.384374 0.504186
vn 0.000000 0.000000 1.000000
vn 0.000000 0.000000 1.000000
vn 0.000025 0.008531 0.999964
vn 0.000024 0.003053 0.999995
vn 0.000000 0.000000 1.000000
vn 0.000002 0.999999 -0.001510
vn -0.010294 0.999946 -0.001623
vn -0.010294 0.999946 0.001623
vn 0.000002 0.999999 0.001510
vn 0.000000 -1.000000 0.000000
vn 0.000000 -1.000000 0.000000
vn 0.000000 -1.000000 0.000000
vn 0.000000 -1.000000 0.000000
vn 1.000000 -0.000000 0.000000
vn 1.000000 -0.000000 0.000000
vn 1.000000 -0.000000 0.000000
vn 1.000000 -0.000000 0.000000
vn 1.000000 -0.000000 0.000000
vn 1.000000 -0.000000 0.000000
vn -1.000000 0.000000 0.000000
vn -1.000000 0.000000 0.000000
vn -0.999268 0.038246 0.000000
vn -0.999268 0.038246 0.000000
vn 0.000000 0.000000 -1.000000
vn 0.000024 0.003053 -0.999995
vn 0.000025 0.008531 -0.999964
vn 0.000000 0.000000 -1.000000
vn 0.000000 0.000000 -1.000000
vn -0.965926 0.258818 0.000000
vn -0.965926 0.258818 0.000000
vn -0.707107 0.707107 0.000000
vn -0.707107 0.707107 0.000000
vn -0.707107 0.707107 0.000000
vn -0.707107 0.707107 0.000000
vn -0.258819 0.965926 0.000000
vn -0.258794 0.965933 0.000026
vn -0.258794 0.965933 -0.000026
vn -0.258819 0.965926 0.000000
vn 0.000000 0.000000 1.000000
vn 0.000000 0.000000 1.000000
vn 0.004214 0.002433 0.999988
vn 0.000000 0.000000 -1.000000
vn 0.000000 0.000000 -1.000000
vn 0.004214 0.002433 -0.999988
vn 0.000889 0.299174 0.954198
vn 0.001243 0.298938 0.954272
vn 0.000959 0.760435 0.649414
vn 0.000617 0.896775 0.442486
vn 0.000517 0.873994 0.485937
vn 0.002954 0.760129 0.649765
vn 0.000617 0.896775 -0.442486
vn 0.000517 0.873994 -0.485938
vn 0.000959 0.760435 -0.649414
vn 0.002954 0.760129 -0.649765
vn 0.000889 0.299174 -0.954198
vn 0.001243 0.298938 -0.954272
vn 1.000000 0.000000 0.000000
vn 1.000000 0.000000 0.000000
vn 0.254590 0.695555 0.671854
vn 1.000000 0.000000 0.000000
vn 1.000000 0.000000 0.000000
vn 0.254591 0.695552 -0.671857
s 1
g pCube1
usemtl initialShadingGroup
f 1/24/1 2/14/2 13/29/3 16/45/4 7/13/5
s 2
f 22/35/6 25/19/7 19/33/8 14/25/9
s off
f 3/28/10 4/1/11 2/3/12 1/2/13
s 3
f 2/14/14 4/15/15 23/52/16 22/16/17 14/44/18 13/29/19
s 4
f 3/4/20 1/24/21 7/13/22 8/5/23
s 5
f 8/26/24 28/41/25 23/27/26 4/1/27 3/28/28
s 4
f 7/13/22 6/6/29 9/7/30 8/5/23
s off
f 6/8/31 5/17/32 10/9/33 9/10/34
s 2
f 5/17/35 15/18/36 19/33/8 25/19/7 24/20/37 10/9/38
s 1
f 5/11/39 6/12/40 7/13/5 16/45/4 15/48/41
s 5
f 8/26/24 9/21/42 10/22/43 24/56/44 28/23/25
s 1
f 13/29/3 12/30/45 17/46/46 16/45/4
s 2
f 12/30/47 11/31/48 18/47/49 17/46/50
f 11/32/48 14/25/9 19/33/8 18/34/49
f 22/35/6 21/37/51 26/36/52 25/19/7
f 21/37/51 20/38/53 27/39/54 26/36/52
s 5
f 20/40/55 23/27/26 28/41/25 27/55/56
s 3
f 11/42/57 12/43/58 13/29/19 14/44/18
s 1
f 15/48/41 16/45/4 17/46/46
s 2
f 15/48/59 17/46/50 18/47/49
f 15/48/36 18/47/49 19/49/8
s 3
f 20/50/60 21/51/61 22/16/17 23/52/16
s 2
f 24/56/37 25/53/7 26/54/52
f 24/56/62 26/54/52 27/55/54
s 5
f 24/56/44 27/55/56 28/23/25
