# This file uses centimeters as units for non-parametric coordinates.

mtllib table.mtl
g default
v 4.045085 4.875000 -2.938927
v 1.545085 4.875000 -4.755283
v -1.545086 4.875000 -4.755283
v -4.045086 4.875000 -2.938926
v -5.000000 4.875000 0.000000
v -4.045085 4.875000 2.938927
v -1.545085 4.875000 4.755283
v 1.545085 4.875000 4.755283
v 4.045085 4.875000 2.938926
v 5.000000 4.875000 0.000000
v 4.045085 5.125000 -2.938927
v 1.545085 5.125000 -4.755283
v -1.545086 5.125000 -4.755283
v -4.045086 5.125000 -2.938926
v -5.000000 5.125000 0.000000
v -4.045085 5.125000 2.938927
v -1.545085 5.125000 4.755283
v 1.545085 5.125000 4.755283
v 4.045085 5.125000 2.938926
v 5.000000 5.125000 0.000000
v 0.000000 4.875000 0.000000
v 0.000000 5.125000 0.000000
v 0.077254 0.480990 -0.237764
v -0.202254 0.480990 -0.146946
v -0.202254 0.480990 0.146946
v 0.077254 0.480990 0.237764
v 0.250000 0.480990 0.000000
v 0.077254 5.000000 -0.237764
v -0.202254 5.000000 -0.146946
v -0.202254 5.000000 0.146946
v 0.077254 5.000000 0.237764
v 0.250000 5.000000 0.000000
v 0.000000 0.480990 0.000000
v 0.000000 5.000000 0.000000
v 0.809017 0.000000 -0.587785
v 0.309017 0.000000 -0.951057
v -0.309017 0.000000 -0.951057
v -0.809017 0.000000 -0.587785
v -1.000000 0.000000 0.000000
v -0.809017 0.000000 0.587785
v -0.309017 0.000000 0.951057
v 0.309017 0.000000 0.951057
v 0.809017 0.000000 0.587785
v 1.000000 0.000000 0.000000
v 0.769421 0.162869 -0.559017
v 0.293893 0.162869 -0.904509
v -0.293893 0.162869 -0.904509
v -0.769421 0.162869 -0.559017
v -0.951057 0.162869 0.000000
v -0.769421 0.162869 0.559017
v -0.293893 0.162869 0.904509
v 0.293893 0.162869 0.904509
v 0.769421 0.162869 0.559017
v 0.951057 0.162869 0.000000
v 0.654509 0.309796 -0.475528
v 0.250000 0.309796 -0.769421
v -0.250000 0.309796 -0.769421
v -0.654509 0.309796 -0.475528
v -0.809017 0.309796 0.000000
v -0.654509 0.309796 0.475528
v -0.250000 0.309796 0.769421
v 0.250000 0.309796 0.769421
v 0.654509 0.309796 0.475528
v 0.809017 0.309796 0.000000
v 0.475528 0.426398 -0.345492
v 0.181636 0.426398 -0.559017
v -0.181636 0.426398 -0.559017
v -0.475528 0.426398 -0.345491
v -0.587785 0.426398 0.000000
v -0.475528 0.426398 0.345492
v -0.181636 0.426398 0.559017
v 0.181636 0.426398 0.559017
v 0.475528 0.426398 0.345491
v 0.587785 0.426398 0.000000
v 0.250000 0.501261 -0.181636
v 0.095491 0.501261 -0.293893
v -0.095492 0.501261 -0.293893
v -0.250000 0.501261 -0.181636
v -0.309017 0.501261 0.000000
v -0.250000 0.501261 0.181636
v -0.095491 0.501261 0.293893
v 0.095492 0.501261 0.293893
v 0.250000 0.501261 0.181636
v 0.309017 0.501261 0.000000
v 0.000000 0.527057 0.000000
vt 0.626409 0.064409
vt 0.548284 0.007647
vt 0.451716 0.007647
vt 0.373591 0.064409
vt 0.343750 0.156250
vt 0.373591 0.248091
vt 0.451716 0.304853
vt 0.548284 0.304853
vt 0.626409 0.248091
vt 0.656250 0.156250
vt 0.375000 0.312500
vt 0.400000 0.312500
vt 0.425000 0.312500
vt 0.450000 0.312500
vt 0.475000 0.312500
vt 0.500000 0.312500
vt 0.525000 0.312500
vt 0.550000 0.312500
vt 0.575000 0.312500
vt 0.600000 0.312500
vt 0.625000 0.312500
vt 0.375000 0.688440
vt 0.400000 0.688440
vt 0.425000 0.688440
vt 0.450000 0.688440
vt 0.475000 0.688440
vt 0.500000 0.688440
vt 0.525000 0.688440
vt 0.550000 0.688440
vt 0.575000 0.688440
vt 0.600000 0.688440
vt 0.625000 0.688440
vt 0.626409 0.751909
vt 0.548284 0.695147
vt 0.451716 0.695147
vt 0.373591 0.751909
vt 0.343750 0.843750
vt 0.373591 0.935591
vt 0.451716 0.992353
vt 0.548284 0.992353
vt 0.626409 0.935591
vt 0.656250 0.843750
vt 0.500000 0.150000
vt 0.500000 0.837500
vt 0.375000 0.312500
vt 0.425000 0.312500
vt 0.425000 0.688440
vt 0.375000 0.688440
vt 0.475000 0.312500
vt 0.475000 0.688440
vt 0.525000 0.312500
vt 0.525000 0.688440
vt 0.575000 0.312500
vt 0.575000 0.688440
vt 0.625000 0.312500
vt 0.625000 0.688440
vt 0.373591 0.064409
vt 0.548284 0.007647
vt 0.500000 0.150000
vt 0.373591 0.248091
vt 0.548284 0.304853
vt 0.656250 0.156250
vt 0.548284 0.992353
vt 0.373591 0.935591
vt 0.500000 0.837500
vt 0.373591 0.751909
vt 0.548284 0.695147
vt 0.656250 0.843750
vt 0.000000 0.500000
vt 0.100000 0.500000
vt 0.100000 0.600000
vt 0.000000 0.600000
vt 0.200000 0.500000
vt 0.200000 0.600000
vt 0.300000 0.500000
vt 0.300000 0.600000
vt 0.400000 0.500000
vt 0.400000 0.600000
vt 0.500000 0.500000
vt 0.500000 0.600000
vt 0.600000 0.500000
vt 0.600000 0.600000
vt 0.700000 0.500000
vt 0.700000 0.600000
vt 0.800000 0.500000
vt 0.800000 0.600000
vt 0.900000 0.500000
vt 0.900000 0.600000
vt 1.000000 0.500000
vt 1.000000 0.600000
vt 0.100000 0.700000
vt 0.000000 0.700000
vt 0.200000 0.700000
vt 0.300000 0.700000
vt 0.400000 0.700000
vt 0.500000 0.700000
vt 0.600000 0.700000
vt 0.700000 0.700000
vt 0.800000 0.700000
vt 0.900000 0.700000
vt 1.000000 0.700000
vt 0.100000 0.800000
vt 0.000000 0.800000
vt 0.200000 0.800000
vt 0.300000 0.800000
vt 0.400000 0.800000
vt 0.500000 0.800000
vt 0.600000 0.800000
vt 0.700000 0.800000
vt 0.800000 0.800000
vt 0.900000 0.800000
vt 1.000000 0.800000
vt 0.100000 0.900000
vt 0.000000 0.900000
vt 0.200000 0.900000
vt 0.300000 0.900000
vt 0.400000 0.900000
vt 0.500000 0.900000
vt 0.600000 0.900000
vt 0.700000 0.900000
vt 0.800000 0.900000
vt 0.900000 0.900000
vt 1.000000 0.900000
vt 0.050000 1.000000
vt 0.150000 1.000000
vt 0.250000 1.000000
vt 0.350000 1.000000
vt 0.450000 1.000000
vt 0.550000 1.000000
vt 0.650000 1.000000
vt 0.750000 1.000000
vt 0.850000 1.000000
vt 0.950000 1.000000
vn 0.587785 0.000000 -0.809017
vn 0.587785 0.000000 -0.809017
vn 0.587785 0.000000 -0.809017
vn 0.587785 0.000000 -0.809017
vn -0.000000 0.000000 -1.000000
vn -0.000000 0.000000 -1.000000
vn -0.000000 0.000000 -1.000000
vn -0.000000 0.000000 -1.000000
vn -0.587785 0.000000 -0.809017
vn -0.587785 0.000000 -0.809017
vn -0.587785 0.000000 -0.809017
vn -0.587785 0.000000 -0.809017
vn -0.951057 0.000000 -0.309017
vn -0.951057 0.000000 -0.309017
vn -0.951057 0.000000 -0.309017
vn -0.951057 0.000000 -0.309017
vn -0.951057 0.000000 0.309017
vn -0.951057 0.000000 0.309017
vn -0.951057 0.000000 0.309017
vn -0.951057 0.000000 0.309017
vn -0.587785 0.000000 0.809017
vn -0.587785 0.000000 0.809017
vn -0.587785 0.000000 0.809017
vn -0.587785 0.000000 0.809017
vn 0.000000 0.000000 1.000000
vn 0.000000 0.000000 1.000000
vn 0.000000 0.000000 1.000000
vn 0.000000 0.000000 1.000000
vn 0.587785 0.000000 0.809017
vn 0.587785 0.000000 0.809017
vn 0.587785 0.000000 0.809017
vn 0.587785 0.000000 0.809017
vn 0.951057 0.000000 0.309017
vn 0.951057 0.000000 0.309017
vn 0.951057 0.000000 0.309017
vn 0.951057 0.000000 0.309017
vn 0.951057 0.000000 -0.309017
vn 0.951057 0.000000 -0.309017
vn 0.951057 0.000000 -0.309017
vn 0.951057 0.000000 -0.309017
vn 0.000000 -1.000000 -0.000000
vn 0.000000 -1.000000 -0.000000
vn 0.000000 -1.000000 -0.000000
vn 0.000000 -1.000000 0.000000
vn 0.000000 -1.000000 0.000000
vn 0.000000 -1.000000 0.000000
vn 0.000000 -1.000000 -0.000000
vn 0.000000 -1.000000 -0.000000
vn 0.000000 -1.000000 -0.000000
vn 0.000000 -1.000000 0.000000
vn 0.000000 -1.000000 0.000000
vn 0.000000 1.000000 0.000000
vn 0.000000 1.000000 0.000000
vn 0.000000 1.000000 0.000000
vn 0.000000 1.000000 -0.000000
vn 0.000000 1.000000 0.000000
vn 0.000000 1.000000 0.000000
vn 0.000000 1.000000 0.000000
vn 0.000000 1.000000 0.000000
vn 0.000000 1.000000 -0.000000
vn 0.000000 1.000000 -0.000000
vn 0.000000 1.000000 0.000000
vn -0.309017 0.000000 -0.951057
vn -0.309017 0.000000 -0.951057
vn -0.309017 0.000000 -0.951057
vn -0.309017 0.000000 -0.951057
vn -1.000000 0.000000 -0.000000
vn -1.000000 0.000000 -0.000000
vn -1.000000 0.000000 -0.000000
vn -1.000000 0.000000 -0.000000
vn -0.309017 0.000000 0.951057
vn -0.309017 0.000000 0.951057
vn -0.309017 0.000000 0.951057
vn -0.309017 0.000000 0.951057
vn 0.809017 0.000000 0.587785
vn 0.809017 0.000000 0.587785
vn 0.809017 0.000000 0.587785
vn 0.809017 0.000000 0.587785
vn 0.809017 0.000000 -0.587785
vn 0.809017 0.000000 -0.587785
vn 0.809017 0.000000 -0.587785
vn 0.809017 0.000000 -0.587785
vn 0.000000 -1.000000 0.000000
vn 0.000000 -1.000000 0.000000
vn 0.000000 -1.000000 0.000000
vn 0.000000 -1.000000 -0.000000
vn 0.000000 -1.000000 0.000000
vn 0.000000 -1.000000 0.000000
vn 0.000000 1.000000 0.000001
vn 0.000000 1.000000 0.000001
vn 0.000000 1.000000 0.000001
vn 0.000000 1.000000 0.000002
vn 0.000000 1.000000 0.000002
vn 0.000000 1.000000 -0.000001
vn 0.565157 0.274797 -0.777872
vn 0.565157 0.274797 -0.777872
vn 0.565157 0.274797 -0.777872
vn 0.565157 0.274797 -0.777872
vn -0.000000 0.274797 -0.961502
vn -0.000000 0.274797 -0.961502
vn -0.000000 0.274797 -0.961502
vn -0.000000 0.274797 -0.961502
vn -0.565157 0.274797 -0.777872
vn -0.565157 0.274797 -0.777872
vn -0.565157 0.274797 -0.777872
vn -0.565157 0.274797 -0.777872
vn -0.914443 0.274797 -0.297120
vn -0.914443 0.274797 -0.297120
vn -0.914443 0.274797 -0.297120
vn -0.914443 0.274797 -0.297120
vn -0.914443 0.274797 0.297121
vn -0.914443 0.274797 0.297121
vn -0.914443 0.274797 0.297121
vn -0.914443 0.274797 0.297121
vn -0.565157 0.274797 0.777872
vn -0.565157 0.274797 0.777872
vn -0.565157 0.274797 0.777872
vn -0.565157 0.274797 0.777872
vn 0.000000 0.274797 0.961502
vn 0.000000 0.274797 0.961502
vn 0.000000 0.274797 0.961502
vn 0.000000 0.274797 0.961502
vn 0.565157 0.274797 0.777872
vn 0.565157 0.274797 0.777872
vn 0.565157 0.274797 0.777872
vn 0.565157 0.274797 0.777872
vn 0.914443 0.274797 0.297121
vn 0.914443 0.274797 0.297121
vn 0.914443 0.274797 0.297121
vn 0.914443 0.274797 0.297121
vn 0.914443 0.274797 -0.297120
vn 0.914443 0.274797 -0.297120
vn 0.914443 0.274797 -0.297120
vn 0.914443 0.274797 -0.297120
vn 0.432694 0.676826 -0.595552
vn 0.432694 0.676826 -0.595552
vn 0.432694 0.676826 -0.595552
vn 0.432694 0.676826 -0.595552
vn -0.000000 0.676826 -0.736143
vn -0.000000 0.676826 -0.736143
vn -0.000000 0.676826 -0.736143
vn -0.000000 0.676826 -0.736143
vn -0.432694 0.676826 -0.595552
vn -0.432694 0.676826 -0.595552
vn -0.432694 0.676826 -0.595552
vn -0.432694 0.676826 -0.595552
vn -0.700114 0.676826 -0.227481
vn -0.700114 0.676826 -0.227481
vn -0.700114 0.676826 -0.227481
vn -0.700114 0.676826 -0.227481
vn -0.700114 0.676826 0.227481
vn -0.700114 0.676826 0.227481
vn -0.700114 0.676826 0.227481
vn -0.700114 0.676826 0.227481
vn -0.432694 0.676826 0.595552
vn -0.432694 0.676826 0.595552
vn -0.432694 0.676826 0.595552
vn -0.432694 0.676826 0.595552
vn 0.000000 0.676826 0.736143
vn 0.000000 0.676826 0.736143
vn 0.000000 0.676826 0.736143
vn 0.000000 0.676826 0.736143
vn 0.432694 0.676826 0.595552
vn 0.432694 0.676826 0.595552
vn 0.432694 0.676826 0.595552
vn 0.432694 0.676826 0.595552
vn 0.700114 0.676826 0.227481
vn 0.700114 0.676826 0.227481
vn 0.700114 0.676826 0.227481
vn 0.700114 0.676826 0.227481
vn 0.700113 0.676826 -0.227480
vn 0.700113 0.676826 -0.227480
vn 0.700113 0.676826 -0.227480
vn 0.700113 0.676826 -0.227480
vn 0.284913 0.874668 -0.392149
vn 0.284913 0.874668 -0.392149
vn 0.284913 0.874668 -0.392149
vn 0.284913 0.874668 -0.392149
vn -0.000000 0.874668 -0.484723
vn -0.000000 0.874668 -0.484723
vn -0.000000 0.874668 -0.484723
vn -0.000000 0.874668 -0.484723
vn -0.284913 0.874668 -0.392149
vn -0.284913 0.874668 -0.392149
vn -0.284913 0.874668 -0.392149
vn -0.284913 0.874668 -0.392149
vn -0.460999 0.874668 -0.149788
vn -0.460999 0.874668 -0.149788
vn -0.460999 0.874668 -0.149788
vn -0.460999 0.874668 -0.149788
vn -0.460999 0.874668 0.149788
vn -0.460999 0.874668 0.149788
vn -0.460999 0.874668 0.149788
vn -0.460999 0.874668 0.149788
vn -0.284913 0.874668 0.392150
vn -0.284913 0.874668 0.392150
vn -0.284913 0.874668 0.392150
vn -0.284913 0.874668 0.392150
vn 0.000000 0.874668 0.484723
vn 0.000000 0.874668 0.484723
vn 0.000000 0.874668 0.484723
vn 0.000000 0.874668 0.484723
vn 0.284913 0.874668 0.392149
vn 0.284913 0.874668 0.392149
vn 0.284913 0.874668 0.392149
vn 0.284913 0.874668 0.392149
vn 0.460999 0.874668 0.149788
vn 0.460999 0.874668 0.149788
vn 0.460999 0.874668 0.149788
vn 0.460999 0.874668 0.149788
vn 0.460999 0.874668 -0.149788
vn 0.460999 0.874668 -0.149788
vn 0.460999 0.874668 -0.149788
vn 0.460999 0.874668 -0.149788
vn 0.159727 0.962370 -0.219845
vn 0.159727 0.962370 -0.219845
vn 0.159727 0.962370 -0.219845
vn 0.159727 0.962370 -0.219845
vn -0.000000 0.962370 -0.271743
vn -0.000000 0.962370 -0.271743
vn -0.000000 0.962370 -0.271743
vn -0.000000 0.962370 -0.271743
vn -0.159727 0.962370 -0.219845
vn -0.159727 0.962370 -0.219845
vn -0.159727 0.962370 -0.219845
vn -0.159727 0.962370 -0.219845
vn -0.258443 0.962370 -0.083973
vn -0.258443 0.962370 -0.083973
vn -0.258443 0.962370 -0.083973
vn -0.258443 0.962370 -0.083973
vn -0.258443 0.962370 0.083973
vn -0.258443 0.962370 0.083973
vn -0.258443 0.962370 0.083973
vn -0.258443 0.962370 0.083973
vn -0.159727 0.962370 0.219845
vn -0.159727 0.962370 0.219845
vn -0.159727 0.962370 0.219845
vn -0.159727 0.962370 0.219845
vn 0.000000 0.962370 0.271743
vn 0.000000 0.962370 0.271743
vn 0.000000 0.962370 0.271743
vn 0.000000 0.962370 0.271743
vn 0.159727 0.962370 0.219845
vn 0.159727 0.962370 0.219845
vn 0.159727 0.962370 0.219845
vn 0.159727 0.962370 0.219845
vn 0.258443 0.962370 0.083973
vn 0.258443 0.962370 0.083973
vn 0.258443 0.962370 0.083973
vn 0.258443 0.962370 0.083973
vn 0.258443 0.962370 -0.083973
vn 0.258443 0.962370 -0.083973
vn 0.258443 0.962370 -0.083973
vn 0.258443 0.962370 -0.083973
vn 0.051394 0.996170 -0.070738
vn 0.051394 0.996170 -0.070738
vn 0.051394 0.996170 -0.070738
vn -0.000000 0.996170 -0.087437
vn -0.000000 0.996170 -0.087437
vn -0.000000 0.996170 -0.087437
vn -0.051394 0.996170 -0.070738
vn -0.051394 0.996170 -0.070738
vn -0.051394 0.996170 -0.070738
vn -0.083158 0.996170 -0.027019
vn -0.083158 0.996170 -0.027019
vn -0.083158 0.996170 -0.027019
vn -0.083158 0.996170 0.027019
vn -0.083158 0.996170 0.027019
vn -0.083158 0.996170 0.027019
vn -0.051394 0.996170 0.070738
vn -0.051394 0.996170 0.070738
vn -0.051394 0.996170 0.070738
vn 0.000000 0.996170 0.087437
vn 0.000000 0.996170 0.087437
vn 0.000000 0.996170 0.087437
vn 0.051394 0.996170 0.070738
vn 0.051394 0.996170 0.070738
vn 0.051394 0.996170 0.070738
vn 0.083158 0.996170 0.027019
vn 0.083158 0.996170 0.027019
vn 0.083158 0.996170 0.027019
vn 0.083158 0.996170 -0.027019
vn 0.083158 0.996170 -0.027019
vn 0.083158 0.996170 -0.027019
vn 0.000000 -1.000000 0.000000
vn 0.000000 -1.000000 0.000000
vn 0.000000 -1.000000 0.000000
vn 0.000000 -1.000000 0.000000
vn 0.000000 -1.000000 0.000000
vn 0.000000 -1.000000 0.000000
vn 0.000000 -1.000000 0.000000
vn 0.000000 -1.000000 0.000000
vn 0.000000 -1.000000 0.000000
vn 0.000000 -1.000000 0.000000
s off
g polySurface1
usemtl initialShadingGroup
f 1/11/1 2/12/2 12/23/3 11/22/4
f 2/12/5 3/13/6 13/24/7 12/23/8
f 3/13/9 4/14/10 14/25/11 13/24/12
f 4/14/13 5/15/14 15/26/15 14/25/16
f 5/15/17 6/16/18 16/27/19 15/26/20
f 6/16/21 7/17/22 17/28/23 16/27/24
f 7/17/25 8/18/26 18/29/27 17/28/28
f 8/18/29 9/19/30 19/30/31 18/29/32
f 9/19/33 10/20/34 20/31/35 19/30/36
f 10/20/37 1/21/38 11/32/39 20/31/40
s 1
f 2/2/41 1/1/42 21/43/43
f 3/3/44 2/2/41 21/43/43
f 4/4/45 3/3/44 21/43/43
f 5/5/46 4/4/45 21/43/43
f 6/6/47 5/5/46 21/43/43
f 7/7/48 6/6/47 21/43/43
f 8/8/49 7/7/48 21/43/43
f 9/9/50 8/8/49 21/43/43
f 10/10/51 9/9/50 21/43/43
f 1/1/42 10/10/51 21/43/43
s 2
f 11/41/52 12/40/53 22/44/54
f 12/40/53 13/39/55 22/44/54
f 13/39/55 14/38/56 22/44/54
f 14/38/56 15/37/57 22/44/54
f 15/37/57 16/36/58 22/44/54
f 16/36/58 17/35/59 22/44/54
f 17/35/59 18/34/60 22/44/54
f 18/34/60 19/33/61 22/44/54
f 19/33/61 20/42/62 22/44/54
f 20/42/62 11/41/52 22/44/54
s off
f 23/45/63 24/46/64 29/47/65 28/48/66
f 24/46/67 25/49/68 30/50/69 29/47/70
f 25/49/71 26/51/72 31/52/73 30/50/74
f 26/51/75 27/53/76 32/54/77 31/52/78
f 27/53/79 23/55/80 28/56/81 32/54/82
s 3
f 24/57/83 23/58/84 33/59/85
f 25/60/86 24/57/83 33/59/85
f 26/61/87 25/60/86 33/59/85
f 27/62/88 26/61/87 33/59/85
f 23/58/84 27/62/88 33/59/85
s 4
f 28/63/89 29/64/90 34/65/91
f 29/64/90 30/66/92 34/65/91
f 30/66/92 31/67/93 34/65/91
f 31/67/93 32/68/94 34/65/91
f 32/68/94 28/63/89 34/65/91
s off
f 35/69/95 36/70/96 46/71/97 45/72/98
f 36/70/99 37/73/100 47/74/101 46/71/102
f 37/73/103 38/75/104 48/76/105 47/74/106
f 38/75/107 39/77/108 49/78/109 48/76/110
f 39/77/111 40/79/112 50/80/113 49/78/114
f 40/79/115 41/81/116 51/82/117 50/80/118
f 41/81/119 42/83/120 52/84/121 51/82/122
f 42/83/123 43/85/124 53/86/125 52/84/126
f 43/85/127 44/87/128 54/88/129 53/86/130
f 44/87/131 35/89/132 45/90/133 54/88/134
f 45/72/135 46/71/136 56/91/137 55/92/138
f 46/71/139 47/74/140 57/93/141 56/91/142
f 47/74/143 48/76/144 58/94/145 57/93/146
f 48/76/147 49/78/148 59/95/149 58/94/150
f 49/78/151 50/80/152 60/96/153 59/95/154
f 50/80/155 51/82/156 61/97/157 60/96/158
f 51/82/159 52/84/160 62/98/161 61/97/162
f 52/84/163 53/86/164 63/99/165 62/98/166
f 53/86/167 54/88/168 64/100/169 63/99/170
f 54/88/171 45/90/172 55/101/173 64/100/174
f 55/92/175 56/91/176 66/102/177 65/103/178
f 56/91/179 57/93/180 67/104/181 66/102/182
f 57/93/183 58/94/184 68/105/185 67/104/186
f 58/94/187 59/95/188 69/106/189 68/105/190
f 59/95/191 60/96/192 70/107/193 69/106/194
f 60/96/195 61/97/196 71/108/197 70/107/198
f 61/97/199 62/98/200 72/109/201 71/108/202
f 62/98/203 63/99/204 73/110/205 72/109/206
f 63/99/207 64/100/208 74/111/209 73/110/210
f 64/100/211 55/101/212 65/112/213 74/111/214
f 65/103/215 66/102/216 76/113/217 75/114/218
f 66/102/219 67/104/220 77/115/221 76/113/222
f 67/104/223 68/105/224 78/116/225 77/115/226
f 68/105/227 69/106/228 79/117/229 78/116/230
f 69/106/231 70/107/232 80/118/233 79/117/234
f 70/107/235 71/108/236 81/119/237 80/118/238
f 71/108/239 72/109/240 82/120/241 81/119/242
f 72/109/243 73/110/244 83/121/245 82/120/246
f 73/110/247 74/111/248 84/122/249 83/121/250
f 74/111/251 65/112/252 75/123/253 84/122/254
f 75/114/255 76/113/256 85/124/257
f 76/113/258 77/115/259 85/125/260
f 77/115/261 78/116/262 85/126/263
f 78/116/264 79/117/265 85/127/266
f 79/117/267 80/118/268 85/128/269
f 80/118/270 81/119/271 85/129/272
f 81/119/273 82/120/274 85/130/275
f 82/120/276 83/121/277 85/131/278
f 83/121/279 84/122/280 85/132/281
f 84/122/282 75/123/283 85/133/284
s 5
f 36/70/285 35/89/286 37/73/287
f 35/89/286 44/87/288 37/73/287
f 44/87/288 43/85/289 37/73/287
f 43/85/289 42/83/290 37/73/287
f 42/83/290 41/81/291 37/73/287
f 41/81/291 40/79/292 37/73/287
f 40/79/292 39/77/293 37/73/287
f 39/77/293 38/75/294 37/73/287
